<svg width="1010" height="244" viewBox="0 0 1010 244" fill="none" xmlns="http://www.w3.org/2000/svg">
<path d="M244 119.679C177.872 119.679 124.321 66.0743 124.321 0H119.679V119.679H0V124.321C66.1283 124.321 119.679 177.926 119.679 244H124.321V124.321H244V119.679Z" fill="white"/>
<path d="M371.368 191.342C339.355 191.342 319.835 173.189 319.835 139.81V54.7024H340.136V138.638C340.136 160.306 350.286 174.36 371.368 174.36C394.206 174.36 402.6 160.306 402.6 138.638V54.7024H422.901V139.81C422.901 173.189 403.381 191.342 371.368 191.342ZM440.663 189V92.5712H459.792V106.235H459.987C465.453 97.8416 476.189 90.2288 490.829 90.2288C512.301 90.2288 524.989 103.112 524.989 126.536V189H505.664V134.93C505.664 117.557 501.76 106.43 485.559 106.43C469.357 106.43 459.987 119.509 459.987 135.125V189H440.663ZM542.845 189V92.5712H562.17V189H542.845ZM542.845 77.5408V54.7024H562.17V77.5408H542.845ZM622.36 191.342C594.056 191.342 574.927 170.846 574.927 140.59C574.927 110.92 594.056 90.2288 622.555 90.2288C647.541 90.2288 661.4 104.869 666.475 123.022L646.955 127.707C644.418 115.605 637 105.65 622.555 105.65C607.135 105.65 595.227 117.947 595.227 140.59C595.227 163.624 606.744 175.922 622.946 175.922C636.415 175.922 644.808 167.528 647.931 153.864L667.256 158.549C661.4 176.702 647.931 191.342 622.36 191.342ZM677.632 189V54.7024H696.957V106.04H697.152C703.203 96.6704 713.159 90.2288 727.799 90.2288C749.271 90.2288 761.959 103.112 761.959 126.536V189H742.634V134.93C742.634 117.557 738.73 106.43 722.528 106.43C706.327 106.43 696.957 119.509 696.957 135.125V189H677.632ZM807.924 191.342C790.551 191.342 774.935 180.802 774.935 162.843C774.935 145.275 787.233 137.272 808.119 133.173L821.393 130.44C831.738 128.293 836.618 126.146 836.618 118.142C836.618 110.139 829.981 104.478 818.269 104.478C805.581 104.478 797.383 112.286 796.602 125.17L776.692 123.413C778.058 102.722 794.65 90.2288 818.465 90.2288C843.06 90.2288 856.138 102.136 856.138 122.437V189H837.594V177.678H837.399C832.909 185.096 822.954 191.342 807.924 191.342ZM812.999 177.483C826.663 177.483 837.399 168.504 837.399 152.498V140.786C817.098 144.104 807.533 146.837 801.677 150.546C797.188 153.278 794.65 157.182 794.65 162.453C794.65 171.432 802.068 177.483 812.999 177.483ZM874.182 189V92.5712H893.507V189H874.182ZM874.182 77.5408V54.7024H893.507V77.5408H874.182ZM912.315 189V92.5712H931.444V106.235H931.639C937.105 97.8416 947.841 90.2288 962.481 90.2288C983.953 90.2288 996.641 103.112 996.641 126.536V189H977.316V134.93C977.316 117.557 973.412 106.43 957.211 106.43C941.009 106.43 931.639 119.509 931.639 135.125V189H912.315Z" fill="white"/>
</svg>
